<svg xmlns="http://www.w3.org/2000/svg" width="105.049" height="144.542" viewBox="0 0 105.049 144.542">
  <g id="Group_129" data-name="Group 129" transform="translate(-1164.256 -5333.966)">
    <g id="icons_Q2" data-name="icons Q2" transform="translate(1164.256 5333.967)">
      <path id="Path_49" data-name="Path 49" d="M113.047,54.591A52.522,52.522,0,1,0,30.982,97.922v41.689a6.894,6.894,0,0,0,6.565,6.894,4.924,4.924,0,0,0,3.611-1.313l19.367-15.1,19.367,15.1A4.924,4.924,0,0,0,83.5,146.5a6.894,6.894,0,0,0,6.565-6.894V97.922a52.522,52.522,0,0,0,22.978-43.331Zm-91.913,0A39.391,39.391,0,1,1,60.525,93.983,39.391,39.391,0,0,1,21.134,54.591Zm55.8,71.561L62.5,114.991a2.954,2.954,0,0,0-3.939,0L44.112,126.152V104.487a55.476,55.476,0,0,0,16.413,2.626,55.476,55.476,0,0,0,16.413-2.626Z" transform="translate(-7.998 -1.97)" fill="rgba(255,255,255,0.1)"/>
      <path id="Path_50" data-name="Path 50" d="M25.814,37.194,24.173,47.37A3.611,3.611,0,0,0,29.1,50.981l8.535-6.237,8.535,6.237a3.611,3.611,0,0,0,4.92-3.611L49.449,37.194l6.894-6.565a3.611,3.611,0,0,0-1.97-5.909l-9.52-1.313-4.267-9.52a3.283,3.283,0,0,0-5.909,0l-4.267,9.52L20.89,24.72a3.611,3.611,0,0,0-1.97,5.909Z" transform="translate(14.896 21.008)" fill="rgba(255,255,255,0.1)"/>
    </g>
    <g id="Layer_2" data-name="Layer 2" transform="translate(1166.534 5349.197)">
      <g id="invisible_box" data-name="invisible box">
        <rect id="Rectangle_94" data-name="Rectangle 94" width="101" height="100" transform="translate(0.465 -0.197)" fill="none"/>
        <rect id="Rectangle_95" data-name="Rectangle 95" width="101" height="100" transform="translate(0.465 -0.197)" fill="none"/>
      </g>
      <g id="icons_Q2-2" data-name="icons Q2" transform="translate(16.621 4.084)">
        <path id="Path_49-2" data-name="Path 49" d="M75.04,35.552A33.519,33.519,0,1,0,22.666,63.206v26.6a4.4,4.4,0,0,0,4.19,4.4,3.142,3.142,0,0,0,2.3-.838l12.36-9.637,12.36,9.637a3.142,3.142,0,0,0,2.3.838,4.4,4.4,0,0,0,4.19-4.4v-26.6A33.519,33.519,0,0,0,75.04,35.552Zm-58.658,0a25.139,25.139,0,1,1,25.139,25.14,25.139,25.139,0,0,1-25.139-25.14ZM52,81.222,42.778,74.1a1.885,1.885,0,0,0-2.514,0l-9.218,7.123V67.4a35.4,35.4,0,0,0,10.475,1.676A35.4,35.4,0,0,0,52,67.4Z" transform="translate(-7.998 -1.97)" fill="#fff"/>
        <path id="Path_50-2" data-name="Path 50" d="M23,28.092l-1.05,6.494a2.3,2.3,0,0,0,3.142,2.3l5.447-3.98,5.447,3.98a2.3,2.3,0,0,0,3.142-2.3l-1.047-6.494,4.4-4.19a2.3,2.3,0,0,0-1.257-3.771l-6.075-.838-2.723-6.075a2.1,2.1,0,0,0-3.771,0L25.93,19.293l-6.075.838A2.3,2.3,0,0,0,18.6,23.9Z" transform="translate(2.984 9.052)" fill="#ffc646"/>
      </g>
    </g>
  </g>
</svg>
