<svg xmlns="http://www.w3.org/2000/svg" xmlns:xlink="http://www.w3.org/1999/xlink" width="474.689" height="731.735" viewBox="0 0 474.689 731.735">
  <defs>
    <linearGradient id="linear-gradient" x1="0.133" y1="0.95" x2="0.926" y2="0.082" gradientUnits="objectBoundingBox">
      <stop offset="0" stop-color="#75a855"/>
      <stop offset="1" stop-color="#2ea557"/>
    </linearGradient>
    <linearGradient id="linear-gradient-2" x1="0.914" y1="0.123" x2="0.104" y2="0.901" gradientUnits="objectBoundingBox">
      <stop offset="0" stop-color="#f50"/>
      <stop offset="1" stop-color="#f58d24"/>
    </linearGradient>
    <linearGradient id="linear-gradient-3" x1="0.914" y1="0.123" x2="0.104" y2="0.901" gradientUnits="objectBoundingBox">
      <stop offset="0" stop-color="#fff"/>
      <stop offset="1" stop-color="#818181"/>
    </linearGradient>
  </defs>
  <g id="Group_40" data-name="Group 40" transform="translate(-1135.873 -2187.633)">
    <g id="Group_34" data-name="Group 34" transform="translate(1467.5 2540.277)">
      <path id="Path_31" data-name="Path 31" d="M3403.491,3341.014l-44.131,50.665h67.3l42.967-50.648Z" transform="translate(-3359.36 -3341.009)" fill="#fff"/>
      <path id="Path_32" data-name="Path 32" d="M3359.36,3386.038l32.562,69.566h67.119l-32.593-69.586Z" transform="translate(-3359.36 -3335.368)" fill="#9d95d0"/>
      <path id="Path_33" data-name="Path 33" d="M3418.982,3391.679l43.155-50.669,32.812,68.9-43.377,51.364Z" transform="translate(-3351.887 -3341.01)" fill="#bdb1fd"/>
    </g>
    <g id="Group_35" data-name="Group 35" transform="translate(1172.518 2616.323)">
      <path id="Path_31-2" data-name="Path 31" d="M3403.491,3341.014l-44.131,50.665h67.3l42.967-50.648Z" transform="translate(-3359.36 -3341.009)" fill="#7c6bfc"/>
      <path id="Path_32-2" data-name="Path 32" d="M3359.36,3386.038l32.562,69.566h67.119l-32.593-69.586Z" transform="translate(-3359.36 -3335.368)" fill="#4a3ee3"/>
      <path id="Path_33-2" data-name="Path 33" d="M3418.982,3391.679l43.155-50.669,32.812,68.9-43.377,51.364Z" transform="translate(-3351.887 -3341.01)" fill="#5c4bfb"/>
    </g>
    <g id="Group_36" data-name="Group 36" transform="translate(1135.873 2187.633)">
      <path id="Path_31-3" data-name="Path 31" d="M3403.491,3341.014l-44.131,50.665h67.3l42.967-50.648Z" transform="translate(-3359.36 -3341.009)" fill="#fffffc"/>
      <path id="Path_32-3" data-name="Path 32" d="M3359.36,3386.038l32.562,69.566h67.119l-32.593-69.586Z" transform="translate(-3359.36 -3335.368)" fill="#ebadc7"/>
      <path id="Path_33-3" data-name="Path 33" d="M3418.982,3391.679l43.155-50.669,32.812,68.9-43.377,51.364Z" transform="translate(-3351.887 -3341.01)" fill="#feceee"/>
    </g>
    <g id="Group_37" data-name="Group 37" transform="translate(1395.969 2230.958)">
      <path id="Path_31-4" data-name="Path 31" d="M3403.491,3341.014l-44.131,50.665h67.3l42.967-50.648Z" transform="translate(-3359.36 -3341.009)" fill="#fff153"/>
      <path id="Path_32-4" data-name="Path 32" d="M3359.36,3386.038l32.562,69.566h67.119l-32.593-69.586Z" transform="translate(-3359.36 -3335.368)" fill="#f7b13a"/>
      <path id="Path_33-4" data-name="Path 33" d="M3418.982,3391.679l43.155-50.669,32.812,68.9-43.377,51.364Z" transform="translate(-3351.887 -3341.01)" fill="#ce8f3e"/>
    </g>
    <g id="Group_38" data-name="Group 38" transform="translate(1298.065 2420.015)">
      <path id="Path_31-5" data-name="Path 31" d="M3403.491,3341.014l-44.131,50.665h67.3l42.967-50.648Z" transform="translate(-3359.36 -3341.009)" fill="#fff"/>
      <path id="Path_32-5" data-name="Path 32" d="M3359.36,3386.038l32.562,69.566h67.119l-32.593-69.586Z" transform="translate(-3359.36 -3335.368)" fill="#db62cd"/>
      <path id="Path_33-5" data-name="Path 33" d="M3418.982,3391.679l43.155-50.669,32.812,68.9-43.377,51.364Z" transform="translate(-3351.887 -3341.01)" fill="#fa87ec"/>
    </g>
    <g id="Group_39" data-name="Group 39" transform="translate(1342.935 2799.105)">
      <path id="Path_31-6" data-name="Path 31" d="M3403.491,3341.014l-44.131,50.665h67.3l42.967-50.648Z" transform="translate(-3359.36 -3341.009)" fill="#fff"/>
      <path id="Path_32-6" data-name="Path 32" d="M3359.36,3386.038l32.562,69.566h67.119l-32.593-69.586Z" transform="translate(-3359.36 -3335.368)" fill="#db62cd"/>
      <path id="Path_33-6" data-name="Path 33" d="M3418.982,3391.679l43.155-50.669,32.812,68.9-43.377,51.364Z" transform="translate(-3351.887 -3341.01)" fill="#fa87ec"/>
    </g>
    <rect id="Rectangle_69" data-name="Rectangle 69" width="52.891" height="52.891" rx="26.445" transform="translate(1191.158 2384.98)" fill="url(#linear-gradient)"/>
    <rect id="Rectangle_70" data-name="Rectangle 70" width="23.632" height="23.632" rx="11.816" transform="translate(1508.503 2468.256)" fill="url(#linear-gradient-2)"/>
    <rect id="Rectangle_71" data-name="Rectangle 71" width="23.632" height="23.632" rx="11.816" transform="translate(1372.337 2720.332)" fill="url(#linear-gradient-3)"/>
  </g>
</svg>
