<svg xmlns="http://www.w3.org/2000/svg" width="680.521" height="987.061" viewBox="0 0 680.521 987.061">
  <g id="Group_2" data-name="Group 2" transform="translate(-219.999 -38.546)">
    <g id="Group_1" data-name="Group 1" transform="translate(150 -270.376)">
      <path id="Intersection_5" data-name="Intersection 5" d="M0,986.952V376.8q15.233-42.118,33.532-83.964C85.234,174.81,148.866,74.853,216.478,0H667.31q6.975,15.083,13.076,31.292v597.2a1403.652,1403.652,0,0,1-73.422,213.521A1187.052,1187.052,0,0,1,531.7,986.952Z" transform="translate(69.999 308.922)" fill="#8fd7f3"/>
      <path id="Intersection_4" data-name="Intersection 4" d="M59.508,986.823C1.341,832.749-20.814,628.157,23.265,406.163,53.949,251.635,112.337,110.809,182.767,0H470.074V986.823Z" transform="translate(280.445 309.008)" fill="#654692"/>
      <path id="Subtraction_1" data-name="Subtraction 1" d="M0,466.8V0H252.023c-17.976,20.937-35.795,43.609-52.959,67.388-17.368,24.061-34.449,49.786-50.769,76.461-16.56,27.066-32.711,55.724-48.006,85.179-15.554,29.954-30.583,61.426-44.669,93.541-10.266,23.407-20.183,47.5-29.474,71.616C16.972,417.994,8.176,442.423,0,466.794Z" transform="translate(69.999 309.008)" fill="#fff5bb"/>
      <path id="Intersection_3" data-name="Intersection 3" d="M1.366,399.435c-14.332-156.847,85.556-325.88,232.6-386.544A303.533,303.533,0,0,1,272.071,0V399.435Z" transform="translate(478.369 896.548)" fill="#f16a60"/>
    </g>
  </g>
</svg>
