<svg id="icons_Q2" data-name="icons Q2" xmlns="http://www.w3.org/2000/svg" xmlns:xlink="http://www.w3.org/1999/xlink" width="33.855" height="33.854" viewBox="0 0 33.855 33.854">
  <defs>
    <linearGradient id="linear-gradient" x1="0.5" x2="0.5" y2="1.218" gradientUnits="objectBoundingBox">
      <stop offset="0" stop-color="#0874af"/>
      <stop offset="1" stop-color="#95cded"/>
    </linearGradient>
  </defs>
  <path id="Union_1" data-name="Union 1" d="M1.693,33.854a1.693,1.693,0,1,1,0-3.385H32.162a1.693,1.693,0,1,1,0,3.385Zm14.049-7.279L7.279,18.2a1.778,1.778,0,0,1-.169-2.285,1.609,1.609,0,0,1,2.539-.169l5.586,5.587V1.692a1.693,1.693,0,0,1,3.385,0V21.328l5.587-5.587a1.609,1.609,0,0,1,2.539.169,1.778,1.778,0,0,1-.169,2.285l-8.464,8.379a1.607,1.607,0,0,1-2.37,0Z" transform="translate(0)" fill="url(#linear-gradient)"/>
</svg>
