<svg xmlns="http://www.w3.org/2000/svg" width="32.787" height="38.082" viewBox="0 0 32.787 38.082">
  <path id="Icon_simple-graphcool" data-name="Icon simple-graphcool" d="M31.707,11.894c-1.75-.986-3.95.3-4.3.522L19.85,16.7a2.953,2.953,0,1,0,1.068,1.8l7.535-4.277.048-.028c.5-.314,1.644-.781,2.181-.479.387.219.608.95.625,2.025H31.3v9.451a2.476,2.476,0,0,1-1.235,2.139L19.23,33.586a2.477,2.477,0,0,1-2.469,0L5.928,27.328a2.476,2.476,0,0,1-1.234-2.139V12.679a2.472,2.472,0,0,1,1.234-2.137l9.8-5.658a2.948,2.948,0,1,0-.725-1.992L4.893,8.734a4.559,4.559,0,0,0-2.286,3.945V25.187a4.559,4.559,0,0,0,2.278,3.947l10.832,6.258a4.566,4.566,0,0,0,4.555,0l10.833-6.258a4.568,4.568,0,0,0,2.278-3.944V16.1h.007c.051-2.133-.521-3.545-1.684-4.2Z" transform="translate(-1.607 1.026)" fill="#ff6c60" stroke="#ff6c60" stroke-width="2"/>
</svg>
