<svg xmlns="http://www.w3.org/2000/svg" width="404.678" height="147.473" viewBox="0 0 404.678 147.473">
  <path id="Path_1" data-name="Path 1" d="M97.041-33.491A42.258,42.258,0,0,1,67.632-22.08a42.405,42.405,0,0,1-30.986-12.8,42.405,42.405,0,0,1-12.8-30.986,42.1,42.1,0,0,1,12.8-30.894,42.405,42.405,0,0,1,30.986-12.8,42.159,42.159,0,0,1,27.739,10.02,11.766,11.766,0,0,0,8.813,2.69,11.522,11.522,0,0,0,7.979-4.36,11.474,11.474,0,0,0,2.69-8.721,11.509,11.509,0,0,0-4.268-8.071,65.507,65.507,0,0,0-42.954-15.4q-28.018,0-47.778,19.761Q0-93.794,0-65.869,0-37.852,19.854-18.091,39.614,1.763,67.632,1.763A65.274,65.274,0,0,0,113-15.771a11.276,11.276,0,0,0,3.9-8.257,11.3,11.3,0,0,0-3.062-8.628,11.746,11.746,0,0,0-8.257-3.9A11.662,11.662,0,0,0,97.041-33.491Zm62.529,9.648v-95.835a11.322,11.322,0,0,0-3.525-8.442,11.216,11.216,0,0,0-8.35-3.525,11.322,11.322,0,0,0-8.442,3.525,11.322,11.322,0,0,0-3.525,8.442v107.71a11.322,11.322,0,0,0,3.525,8.442A11.322,11.322,0,0,0,147.7,0h54.551a11.518,11.518,0,0,0,8.442-3.525,11.475,11.475,0,0,0,3.433-8.442,11.675,11.675,0,0,0-3.433-8.442,11.675,11.675,0,0,0-8.442-3.433Zm85.073-107.8a11.322,11.322,0,0,0-8.442,3.525,11.322,11.322,0,0,0-3.525,8.442v107.71A11.322,11.322,0,0,0,236.2-3.525,11.322,11.322,0,0,0,244.644,0a11.216,11.216,0,0,0,8.35-3.525,11.322,11.322,0,0,0,3.525-8.442v-107.71a11.322,11.322,0,0,0-3.525-8.442A11.216,11.216,0,0,0,244.644-131.646Zm114.3,89.8a11.443,11.443,0,0,0-7.422-5.288,11.512,11.512,0,0,0-9,1.484,11.443,11.443,0,0,0-5.288,7.422,11.512,11.512,0,0,0,1.484,9l4.175,6.865a51.315,51.315,0,0,1-5.752.371,42.405,42.405,0,0,1-30.986-12.8,42.1,42.1,0,0,1-12.8-30.894,42.1,42.1,0,0,1,12.8-30.894,42.252,42.252,0,0,1,30.986-12.9,41.947,41.947,0,0,1,30.894,12.9,42.1,42.1,0,0,1,12.8,30.894,43.042,43.042,0,0,1-4.268,18.833,43.44,43.44,0,0,1-11.6,14.751Zm-21.8-91.475q-28.018,0-47.778,19.854-19.854,19.854-19.854,47.778T289.36-17.905Q309.121,1.855,337.139,1.855A66.775,66.775,0,0,0,356.25-.928l5.845,9.37a11.953,11.953,0,0,0,16.421,3.8A11.443,11.443,0,0,0,383.8,4.824a11.6,11.6,0,0,0-1.484-9l-4.639-7.515a67.694,67.694,0,0,0,19.668-23.379,66.49,66.49,0,0,0,7.329-30.615q0-27.925-19.761-47.778Q365.063-133.315,337.139-133.315Z" transform="translate(0 133.408)" fill="#e0e0e0"/>
</svg>
