<svg xmlns="http://www.w3.org/2000/svg" xmlns:xlink="http://www.w3.org/1999/xlink" width="27.055" height="20.311" viewBox="0 0 27.055 20.311">
  <defs>
    <linearGradient id="linear-gradient" x1="0.5" x2="0.5" y2="1.218" gradientUnits="objectBoundingBox">
      <stop offset="0" stop-color="#ff5800"/>
      <stop offset="1" stop-color="#ff95d2"/>
    </linearGradient>
  </defs>
  <path id="Union_1" data-name="Union 1" d="M15.742,26.575,7.279,18.2a1.778,1.778,0,0,1-.169-2.285,1.609,1.609,0,0,1,2.539-.169l5.586,5.587V1.692a1.693,1.693,0,0,1,3.385,0V21.328l5.587-5.587a1.609,1.609,0,0,1,2.539.169,1.778,1.778,0,0,1-.169,2.285l-8.464,8.379a1.607,1.607,0,0,1-2.37,0Z" transform="translate(-0.041 27.083) rotate(-90)" fill="url(#linear-gradient)"/>
</svg>
