<svg id="Layer_2" data-name="Layer 2" xmlns="http://www.w3.org/2000/svg" xmlns:xlink="http://www.w3.org/1999/xlink" width="180" height="180" viewBox="0 0 180 180">
  <defs>
    <linearGradient id="linear-gradient" x1="0.5" x2="0.5" y2="1" gradientUnits="objectBoundingBox">
      <stop offset="0" stop-color="#3997a0"/>
      <stop offset="1" stop-color="#ca9a7c"/>
    </linearGradient>
  </defs>
  <g id="invisible_box" data-name="invisible box">
    <rect id="Rectangle_131" data-name="Rectangle 131" width="180" height="180" fill="none"/>
  </g>
  <g id="icons_Q2" data-name="icons Q2" transform="translate(7.485 7.485)">
    <g id="Group_128" data-name="Group 128">
      <path id="Path_58" data-name="Path 58" d="M144.922,103.766,165.5,98.154a86.053,86.053,0,0,0,0-27.687l-20.578-5.612a6.735,6.735,0,0,1-4.116-9.728L151.283,36.42A77.075,77.075,0,0,0,132.2,17.339L113.494,27.815l-2.993.748a6.735,6.735,0,0,1-6.735-4.864L98.154,3.121a86.053,86.053,0,0,0-27.687,0L64.855,23.7a6.735,6.735,0,0,1-6.735,4.864l-2.993-.748L36.42,17.339A77.074,77.074,0,0,0,17.339,36.42L27.815,55.127A6.735,6.735,0,0,1,23.7,64.855L3.121,70.467a86.054,86.054,0,0,0,0,27.687L23.7,103.766a6.735,6.735,0,0,1,4.116,9.728L17.339,132.2A77.074,77.074,0,0,0,36.42,151.283l18.707-10.476,2.993-.748a6.735,6.735,0,0,1,6.735,4.864L70.467,165.5a86.053,86.053,0,0,0,27.687,0l5.612-20.578a6.735,6.735,0,0,1,6.735-4.864l2.993.748L132.2,151.283A77.074,77.074,0,0,0,151.283,132.2l-10.476-18.707a6.735,6.735,0,0,1,4.116-9.728Zm-4.49-14.592h-.748a22.823,22.823,0,0,0-12.721,12.347,21.326,21.326,0,0,0,.374,17.959h.374v.748l5.612,9.354a11.224,11.224,0,0,1-2.993,2.993l-9.354-5.612h-1.122a20.2,20.2,0,0,0-9.354-2.245A22.449,22.449,0,0,0,89.549,139.31v1.122h0l-3.367,11.224H82.44l-2.993-10.85h0v-.748a22.449,22.449,0,0,0-21.326-14.966,20.2,20.2,0,0,0-9.354,2.245H47.645l-9.354,5.612a11.224,11.224,0,0,1-2.993-2.993L40.91,120.6v-.748h.374a21.326,21.326,0,0,0,.374-17.959A22.823,22.823,0,0,0,28.937,89.549H27.815l-10.85-3.367V82.44l10.85-2.993h1.122A22.823,22.823,0,0,0,41.658,67.1a21.326,21.326,0,0,0-.374-17.959H40.91v-.748L35.3,39.039l2.993-2.993,9.354,5.612h1.122A20.2,20.2,0,0,0,58.121,43.9,22.449,22.449,0,0,0,79.073,29.311V28.189h0L82.44,16.965h3.741l2.993,10.85h0v.748A22.449,22.449,0,0,0,110.5,43.529a20.2,20.2,0,0,0,9.354-2.245h1.122l9.354-5.612a11.225,11.225,0,0,1,2.993,2.993l-5.612,9.354v.748h-.374a21.326,21.326,0,0,0-.374,17.959,22.823,22.823,0,0,0,12.721,12.347h1.122l10.85,2.993v3.741L140.807,88.8Z" transform="translate(-2 -2)" fill="url(#linear-gradient)"/>
      <path id="Path_59" data-name="Path 59" d="M48.673,15A33.673,33.673,0,1,0,82.346,48.673,33.673,33.673,0,0,0,48.673,15Zm0,52.38A18.707,18.707,0,1,1,67.38,48.673,18.707,18.707,0,0,1,48.673,67.38Z" transform="translate(33.637 33.637)" fill="url(#linear-gradient)"/>
    </g>
  </g>
</svg>
