<?xml version="1.0" ?><!DOCTYPE svg  PUBLIC '-//W3C//DTD SVG 1.1//EN'  'http://www.w3.org/Graphics/SVG/1.1/DTD/svg11.dtd'><svg enable-background="new 0 0 512 512" id="Layer_1" version="1.1" viewBox="0 0 512 512" xml:space="preserve" xmlns="http://www.w3.org/2000/svg" xmlns:xlink="http://www.w3.org/1999/xlink"><g><path d="M512,256c0,141.4-114.6,256-256,256S0,397.4,0,256S114.6,0,256,0C397.4,0,512,114.6,512,256z" fill="#EA4C89"/><path d="M256.3,98.8C168.9,98.8,98,169.7,98,257.1s70.9,158.3,158.3,158.3   s158.3-70.9,158.3-158.3C414.6,169.6,343.7,98.8,256.3,98.8z M386.7,249.7c-34-5.6-65.2-5.9-93.7-1c-3.2-7.4-6.6-14.8-10.1-22.2   c30.5-13.2,54.9-31.1,73.2-53.8C373.9,193.7,385,220.4,386.7,249.7z M336,153.6c-15.9,20.5-37.8,36.7-65.8,48.5   c-13.4-24.5-28.7-48.5-46-71.7c10.3-2.6,21-4.1,32.1-4.1C286.3,126.3,313.9,136.6,336,153.6z M197.3,140.5   c17.6,23,33.1,46.7,46.6,71c-32.1,9.4-70.3,14.3-114.5,14.6C138.6,188.7,163.7,157.6,197.3,140.5z M125.6,257   c0-1.1,0.1-2.2,0.2-3.4c50.8-0.1,94.5-5.9,131.2-17.4c3.1,6.3,6,12.5,8.8,18.9c-44.6,13.9-81.3,42.5-110,85.5   C137,317.9,125.6,288.8,125.6,257z M176.1,360.1c26-40.7,59.1-67.2,100.2-79.5c12.2,31.9,21.2,64.8,26.9,98.4   c-14.6,5.6-30.4,8.8-46.9,8.8C226.1,387.8,198.2,377.4,176.1,360.1z M328.9,365.7c-5.8-31-14.3-61.4-25.3-91   c24.7-3.5,52-2.6,81.8,2.6C379.5,314.1,358.6,345.8,328.9,365.7z" fill="#FFFFFF" id="dribbble-icon_1_"/></g></svg>