<?xml version="1.0" ?><!DOCTYPE svg  PUBLIC '-//W3C//DTD SVG 1.1//EN'  'http://www.w3.org/Graphics/SVG/1.1/DTD/svg11.dtd'><svg enable-background="new 0 0 512 512" id="Layer_1" version="1.1" viewBox="0 0 512 512" xml:space="preserve" xmlns="http://www.w3.org/2000/svg" xmlns:xlink="http://www.w3.org/1999/xlink"><g><path d="M512,256c0,141.4-114.6,256-256,256S0,397.4,0,256S114.6,0,256,0C397.4,0,512,114.6,512,256z" fill="#007EE5"/><g><polygon fill="#FFFFFF" points="121.9,270.7 202.8,321.3 258.5,274.3 177.6,223.7   "/><polygon fill="#FFFFFF" points="258.5,274.3 314.1,321.3 395,270.7 339.3,223.7   "/><polygon fill="#FFFFFF" points="395,176.8 314.1,126.2 258.5,173.1 339.3,223.7   "/><polygon fill="#FFFFFF" points="258.5,173.1 202.8,126.2 121.9,176.8 177.6,223.7   "/><polygon fill="#FFFFFF" points="258.5,289.7 202.8,336.7 177.7,321 177.7,335.5 259.2,385.8 340.8,335.5 340.8,320 314.1,336.7       "/></g></g></svg>