<?xml version="1.0" ?><!DOCTYPE svg  PUBLIC '-//W3C//DTD SVG 1.1//EN'  'http://www.w3.org/Graphics/SVG/1.1/DTD/svg11.dtd'><svg enable-background="new 0 0 512 512" id="Layer_1" version="1.1" viewBox="0 0 512 512" xml:space="preserve" xmlns="http://www.w3.org/2000/svg" xmlns:xlink="http://www.w3.org/1999/xlink"><g><path d="M512,256c0,141.4-114.6,256-256,256S0,397.4,0,256S114.6,0,256,0C397.4,0,512,114.6,512,256z" fill="#2DBE60"/><g><path d="M191,124c-12.6,13.4-26.3,25.8-38.9,39.3c-3.5,2.3-7,6.6-9.8,9.4c-0.9,0.9-3.6,2.4-2.3,3    c10.2-7.1,31.7-2.8,47.2-4.5c1.9-2.3,0.9-5.5,0.8-8.7c-0.4-8.3-0.7-19.2,0-27.2C188.4,130.6,190.4,127.3,191,124z" fill="#FFFFFF"/><path d="M137.4,231.6c2.8,17.8,5.9,35,10.6,51.3c2.3,8.1,4.9,16.8,9.8,21.2c4.5,4,12.7,5.9,20,7.9    c14.4,3.9,25.2,6.3,41.9,8.7c6.3,0.9,15.3,4.2,22.3,1.5c6.7-2.6,9-13.2,10.9-21.1c1.6-6.7,2.7-13.9,3-20.8c0.1-2.7-1-6.3,1.1-7.2    c0.8,16.9,1.9,27.7,12.8,33.6c4.9,2.6,13.3,4.4,21.9,5.7c8.5,1.2,17.9,1.2,23.8,3.8c9.7,4.2,11.9,14.8,12.8,28.7    c0.7,9.8,1.6,22.3-4.9,27.2c-4.4,3.3-13.8,3.4-23.4,3.4c-9.8,0-17.6-0.6-20-5.3c-2.3-4.5-1.6-12.3,0.8-15.1    c3.9-4.6,12.3-2.6,19.3-3.8c-0.2-3.5-1-6.9-0.8-10.6c0.3-3.4,2.1-6.4,1.5-9.1c-17.2-1.4-33.9-0.6-40.8,9.1    c-7.9,11-7.8,39.7-0.8,51c7.8,12.5,27.6,13.3,46.1,13.6c14,0.2,30.6-0.8,38.9-7.6c7.9-6.4,13-17.6,17-29.5    c8.2-24.5,11.7-49.1,14.4-78.2c1.3-14.7,0.4-29.9,0-44.9c-0.5-20.3-2-45.1-4.2-65.3c-0.8-7.6-1.5-15.1-3.4-20    c-4.5-11.6-15.1-14.6-28.7-17c-19.5-3.5-40.2-5.5-61.9-4.5c-3-14.1-11.3-19.1-26.4-21.5c-19.9-3.2-45.5-2.9-52.1,12.5    c-3.1,7.2-1.5,16.3-1.5,26.4c0,5.9,1.2,13.2-0.8,17.7c-4.5,10.6-23.3,4.8-40,6c-3.9,0.3-9.1,1.5-12.5,3.4    C129.9,191,134.7,214.1,137.4,231.6z M309.6,238.4c4.4-3.4,11.8-3.8,16.6-1.1c5.7,3.1,7.8,11.3,7.9,19.3c-8.5-3.2-19.8-5-31-3.4    C304.4,246.7,305.7,241.5,309.6,238.4z" fill="#FFFFFF"/></g></g></svg>